<svg width="45" height="45" viewBox="0 0 45 45" fill="none" xmlns="http://www.w3.org/2000/svg">
<rect x="0.5" y="0.5" width="44" height="44" rx="22" stroke="#666666"/>
<path d="M19.1968 15.6308V8.5L22.8603 12.1636L19.1968 15.6308Z" fill="#5D5D5D"/>
<path d="M22.5986 12.1631L22.2852 12.4814C21.9787 12.4553 21.6687 12.4395 21.3555 12.4395C15.4017 12.4395 10.5753 17.266 10.5752 23.2197C10.5753 29.1734 15.4017 33.9999 21.3555 34C27.3092 34 32.1356 29.1735 32.1357 23.2197C32.1357 21.9003 31.8968 20.637 31.4629 19.4688L33.3926 18.1826L33.6143 18.1133C34.27 19.6857 34.6357 21.4097 34.6357 23.2197C34.6356 30.5542 28.6899 36.5 21.3555 36.5C14.021 36.4999 8.0753 30.5541 8.0752 23.2197C8.07528 16.2041 13.5153 10.4589 20.4072 9.97266L22.5986 12.1631ZM22.7266 10.0088C26.6328 10.4094 30.0353 12.5049 32.1924 15.5459C32.084 15.5762 31.9799 15.6048 31.8887 15.6309C31.6229 15.7068 30.6979 16.223 29.9189 16.6758C28.4443 14.7496 26.3364 13.3338 23.9043 12.7441L24.4307 12.1631L22.5986 10.2666L22.7266 10.0088Z" fill="#5D5D5D"/>
<path d="M16.5794 19.6214C16.5794 19.6738 19.8068 22.7834 21.4206 24.3317C28.172 17.685 34.5701 15.2383 36.9252 14.8457L36.5327 15.5653C33.3925 17.1354 30.2959 19.4033 29.1402 20.341C25.686 22.7485 23.0779 26.3161 22.2056 27.799C21.4206 28.741 20.7445 28.1915 20.5047 27.799L15.4019 20.7336C15.0093 19.0327 16.5794 19.556 16.5794 19.6214Z" fill="#5D5D5D"/>
</svg>
