<svg width="45" height="45" viewBox="0 0 45 45" fill="none" xmlns="http://www.w3.org/2000/svg">
<rect x="0.5" y="0.5" width="44" height="44" rx="22" stroke="#666666"/>
<path d="M8.31934 32.769H10.2753" stroke="#666666" stroke-width="0.733483" stroke-linecap="round"/>
<path d="M13.6982 32.769H15.6542" stroke="#666666" stroke-width="0.733483" stroke-linecap="round"/>
<path d="M19.0771 32.769H21.0331" stroke="#666666" stroke-width="0.733483" stroke-linecap="round"/>
<path d="M24.2114 32.769H26.1674" stroke="#666666" stroke-width="0.733483" stroke-linecap="round"/>
<path d="M29.3457 32.769H31.3017" stroke="#666666" stroke-width="0.733483" stroke-linecap="round"/>
<path d="M34.48 32.769H36.4359" stroke="#666666" stroke-width="0.733483" stroke-linecap="round"/>
<path d="M32.0352 36.1924H33.9911" stroke="#666666" stroke-width="0.733483" stroke-linecap="round"/>
<path d="M26.9009 36.1924H28.8568" stroke="#666666" stroke-width="0.733483" stroke-linecap="round"/>
<path d="M21.522 36.1924H23.4779" stroke="#666666" stroke-width="0.733483" stroke-linecap="round"/>
<path d="M16.1431 36.1924H18.099" stroke="#666666" stroke-width="0.733483" stroke-linecap="round"/>
<path d="M10.7642 36.1924H12.7201" stroke="#666666" stroke-width="0.733483" stroke-linecap="round"/>
<path d="M8.31934 27.8794C8.60458 27.7979 9.32176 27.8061 9.90855 28.4907C10.642 29.3464 12.2312 29.4686 12.8425 29.2241C13.4537 28.9796 14.3094 27.635 15.5319 27.8794C16.7544 28.1239 17.2434 29.4686 18.5881 29.2241C19.9328 28.9796 19.5661 29.1018 20.9108 28.3684C22.2555 27.6349 23.1112 27.8794 23.6002 28.1239C24.0892 28.3684 24.7004 29.4686 26.0452 29.2241C27.3899 28.9796 28.0011 27.7571 29.3458 27.7571C30.6906 27.7571 31.6685 29.5908 33.0133 29.2241C34.358 28.8573 35.7027 27.1459 36.6807 27.7571" stroke="#666666" stroke-width="0.733483" stroke-linecap="round"/>
<path d="M8.44141 24.2119H36.6805" stroke="#666666" stroke-width="0.733483" stroke-linecap="round"/>
<path d="M16.9902 8.80762C16.9902 8.25533 16.5425 7.80762 15.9902 7.80762C15.4379 7.80762 14.9902 8.25533 14.9902 8.80762L15.9902 8.80762L16.9902 8.80762ZM15.9902 8.80762L14.9902 8.80762L14.9902 16.6314L15.9902 16.6314L16.9902 16.6314L16.9902 8.80762L15.9902 8.80762Z" fill="#666666"/>
<path d="M15.7169 18.6482L12.6868 15.9067C12.4832 15.7225 12.6135 15.3843 12.8881 15.3843H19.0925C19.3705 15.3843 19.499 15.7296 19.2886 15.9113L16.1142 18.6528C15.9996 18.7518 15.8292 18.7498 15.7169 18.6482Z" fill="#666666"/>
<path d="M23.5 12.231C23.5 11.6787 23.0523 11.231 22.5 11.231C21.9477 11.231 21.5 11.6787 21.5 12.231L22.5 12.231L23.5 12.231ZM22.5 12.231L21.5 12.231L21.5 20.0548L22.5 20.0548L23.5 20.0548L23.5 12.231L22.5 12.231Z" fill="#666666"/>
<path d="M22.2271 22.0716L19.1971 19.3301C18.9935 19.1459 19.1238 18.8076 19.3984 18.8076H25.6028C25.8807 18.8076 26.0092 19.153 25.7988 19.3347L22.6245 22.0761C22.5099 22.1751 22.3394 22.1732 22.2271 22.0716Z" fill="#666666"/>
<path d="M31.2002 8.80762C31.2002 8.25533 30.7525 7.80762 30.2002 7.80762C29.6479 7.80762 29.2002 8.25533 29.2002 8.80762L30.2002 8.80762L31.2002 8.80762ZM30.2002 8.80762L29.2002 8.80762L29.2002 16.6314L30.2002 16.6314L31.2002 16.6314L31.2002 8.80762L30.2002 8.80762Z" fill="#666666"/>
<path d="M29.9268 18.6482L26.8968 15.9067C26.6932 15.7225 26.8235 15.3843 27.0981 15.3843H33.3025C33.5804 15.3843 33.7089 15.7296 33.4985 15.9113L30.3242 18.6528C30.2096 18.7518 30.0392 18.7498 29.9268 18.6482Z" fill="#666666"/>
</svg>
