<svg width="45" height="45" viewBox="0 0 45 45" fill="none" xmlns="http://www.w3.org/2000/svg">
<rect x="0.5" y="0.5" width="44" height="44" rx="22" stroke="#666666"/>
<path d="M19.1589 14.606C20.7075 14.606 21.9635 15.8611 21.9636 17.4097V22.1226H16.3552V17.4097C16.3553 15.8611 17.6104 14.6061 19.1589 14.606Z" stroke="#666666" stroke-width="0.755421"/>
<path d="M19.1592 31.0312C17.6106 31.0312 16.3546 29.7761 16.3545 28.2275L16.3545 23.5146L21.9629 23.5146L21.9629 28.2275C21.9628 29.7761 20.7077 31.0312 19.1592 31.0312Z" stroke="#666666" stroke-width="0.755421"/>
<path d="M27.355 19.2171C28.7108 18.4343 30.4443 18.8988 31.2271 20.2546V20.2546C32.0098 21.6103 31.5453 23.3439 30.1896 24.1266L26.2619 26.3942L23.4274 21.4847L27.355 19.2171Z" fill="#666666"/>
<path d="M25.4433 26.9546L23.5342 23.5342V28.1478L25.4433 26.9546Z" fill="#666666"/>
<circle cx="22.5" cy="22.5" r="13.0455" stroke="#666666" stroke-width="1.90909"/>
<line x1="12.9777" y1="31.8989" x2="31.5913" y2="13.6035" stroke="#666666" stroke-width="1.75"/>
</svg>
