<svg width="45" height="45" viewBox="0 0 45 45" fill="none" xmlns="http://www.w3.org/2000/svg">
<rect x="0.5" y="0.5" width="44" height="44" rx="22" stroke="#666666"/>
<path d="M10.7023 23.1033L7.99716 23.4978C7.72028 23.5382 7.52571 23.7915 7.55803 24.0694L8.5993 33.0243C8.63323 33.3161 8.90304 33.5211 9.19323 33.4756L12.1075 33.0184C12.3866 32.9747 12.5789 32.7151 12.5396 32.4354L11.2891 23.5431C11.2492 23.2592 10.986 23.062 10.7023 23.1033Z" fill="#666666"/>
<path d="M11.759 24.3452C12.7915 23.7257 15.4293 22.6417 17.7213 23.2611C20.5862 24.0354 24.0706 23.8806 26.471 23.5709C28.8714 23.2611 29.1037 25.7389 28.6391 26.0487C28.1745 26.3584 27.9422 27.1327 20.8959 27.7522" stroke="#666666" stroke-width="0.774314" stroke-linecap="round"/>
<path d="M29.3358 25.4292L35.0657 21.8674C36.1497 21.6351 38.1165 21.8054 37.3112 24.3452L29.3358 30.9268C28.3808 31.5979 26.1146 32.94 24.6899 32.94C23.8123 32.9658 21.0816 32.7696 17.179 31.7785C16.1724 31.6495 13.8495 31.4688 12.6106 31.7785" stroke="#666666" stroke-width="0.774314" stroke-linecap="round"/>
<path d="M18.3765 12.4404C19.3786 12.4405 20.9647 12.8672 22.3042 13.5996C22.9651 13.961 23.5105 14.3674 23.8784 14.7793C24.2481 15.1933 24.3784 15.5423 24.3784 15.8174C24.3783 16.0924 24.248 16.4407 23.8784 16.8545C23.5105 17.2664 22.9651 17.6728 22.3042 18.0342C20.9647 18.7666 19.3786 19.1933 18.3765 19.1934C16.5117 19.1934 14.9997 17.6821 14.9995 15.8174C14.9995 13.9525 16.5116 12.4404 18.3765 12.4404Z" stroke="#666666" stroke-width="2"/>
<path d="M30.312 12.4404C29.3099 12.4405 27.7238 12.8672 26.3843 13.5996C25.7234 13.961 25.178 14.3674 24.8101 14.7793C24.4403 15.1933 24.3101 15.5423 24.3101 15.8174C24.3102 16.0924 24.4405 16.4407 24.8101 16.8545C25.178 17.2664 25.7234 17.6728 26.3843 18.0342C27.7238 18.7666 29.3099 19.1933 30.312 19.1934C32.1767 19.1934 33.6888 17.6821 33.689 15.8174C33.689 13.9525 32.1769 12.4404 30.312 12.4404Z" stroke="#666666" stroke-width="2"/>
</svg>
