<svg width="45" height="45" viewBox="0 0 45 45" fill="none" xmlns="http://www.w3.org/2000/svg">
<rect x="0.5" y="0.5" width="44" height="44" rx="22" stroke="#666666"/>
<path d="M17.4138 10.3049C15.9813 9.85721 15.6977 10.9764 15.735 11.5919C20.0998 16.423 28.9076 26.0292 29.221 25.8053C29.6127 25.5255 29.6686 25.6934 30.2842 25.5255C30.8997 25.3577 30.8997 25.1338 31.0676 24.7981C31.2355 24.4623 31.0116 23.7349 31.0676 23.567C31.1235 23.3991 30.9557 23.3991 31.907 22.7276C32.668 22.1904 32.4106 21.4592 32.1867 21.1608C32.0375 21.0116 31.8734 20.5452 32.4106 19.8737C33.0821 19.0344 32.9702 18.8105 32.9142 18.5867C32.8694 18.4076 32.4852 17.9898 32.2987 17.8033C32.2427 17.7287 32.1196 17.4899 32.0748 17.1318C32.0301 16.7737 32.3173 16.3111 32.4665 16.1245C32.5785 15.3411 32.0748 15.1173 31.7391 14.9494C31.4033 14.7815 31.1235 14.5017 31.0116 14.2779C30.8997 14.0541 31.0116 13.3826 31.0676 12.9909C31.1235 12.5992 30.564 12.2634 30.2282 12.2634C29.8925 12.2634 29.5007 12.0955 29.221 11.9277C28.9412 11.7598 28.9412 11.0323 28.9412 10.7525C28.9412 10.4727 28.4375 10.081 27.9339 10.193C27.4303 10.3049 27.1505 10.2489 26.7588 10.081C26.3671 9.91317 26.1432 9.29762 25.9754 9.01784C25.8075 8.73805 25.192 8.68208 24.9122 8.90592C24.6324 9.12975 24.1847 9.24167 23.9609 9.24167C23.7818 9.24167 23.2148 8.794 22.9536 8.57017C22.1702 8.1225 21.7225 8.62613 21.3308 9.01784C21.0175 9.3312 20.4541 9.22304 20.2117 9.12978C19.0365 8.5702 18.6448 9.18574 18.365 9.80128C18.1412 10.2937 17.6376 10.3422 17.4138 10.3049Z" fill="#666666"/>
<path d="M27.5862 27.2083C29.0187 27.656 29.3023 26.5368 29.265 25.9213C24.9002 21.0902 16.0924 11.484 15.779 11.7079C15.3873 11.9876 15.3314 11.8198 14.7158 11.9876C14.1003 12.1555 14.1003 12.3794 13.9324 12.7151C13.7645 13.0508 13.9884 13.7783 13.9324 13.9462C13.8765 14.1141 14.0443 14.1141 13.093 14.7856C12.332 15.3228 12.5894 16.0539 12.8133 16.3524C12.9625 16.5016 13.1266 16.9679 12.5894 17.6394C11.9179 18.4788 12.0298 18.7026 12.0858 18.9265C12.1306 19.1055 12.5148 19.5234 12.7013 19.7099C12.7573 19.7845 12.8804 20.0233 12.9252 20.3814C12.9699 20.7395 12.6827 21.2021 12.5335 21.3886C12.4215 22.1721 12.9252 22.3959 13.2609 22.5638C13.5967 22.7316 13.8765 23.0114 13.9884 23.2353C14.1003 23.4591 13.9884 24.1306 13.9324 24.5223C13.8765 24.914 14.436 25.2498 14.7718 25.2498C15.1075 25.2498 15.4993 25.4176 15.779 25.5855C16.0588 25.7534 16.0588 26.4809 16.0588 26.7606C16.0588 27.0404 16.5625 27.4321 17.0661 27.3202C17.5697 27.2083 17.8495 27.2643 18.2412 27.4321C18.6329 27.6 18.8568 28.2156 19.0246 28.4953C19.1925 28.7751 19.808 28.8311 20.0878 28.6073C20.3676 28.3834 20.8153 28.2715 21.0391 28.2715C21.2182 28.2715 21.7852 28.7192 22.0464 28.943C22.8298 29.3907 23.2775 28.8871 23.6692 28.4953C23.9825 28.182 24.5459 28.2901 24.7883 28.3834C25.9635 28.943 26.3552 28.3274 26.635 27.7119C26.8588 27.2195 27.3624 27.171 27.5862 27.2083Z" fill="#666666"/>
<circle cx="22.5527" cy="18.6699" r="7.46333" fill="#E1E1DF"/>
<path d="M13.2183 34.3671L15.9043 27.4282C16.0535 27.5774 16.4415 27.8647 16.7996 27.8199C17.2473 27.764 17.5271 27.764 17.8628 27.8199C18.1986 27.8759 18.4224 28.3236 18.4783 28.4355C18.5343 28.5474 18.7022 29.107 19.3177 29.1629C19.8102 29.2077 20.2317 28.9578 20.3809 28.8272C21.0972 28.6033 21.5747 29.107 21.7239 29.3868L18.8701 36.5494L17.1913 32.5764L13.2183 34.3671Z" fill="#666666"/>
<path d="M31.7402 34.4232L29.0542 27.4844C28.905 27.6336 28.517 27.9208 28.1589 27.8761C27.7112 27.8201 27.4314 27.8201 27.0957 27.8761C26.7599 27.932 26.5361 28.3797 26.4802 28.4916C26.4242 28.6035 26.2563 29.1631 25.6408 29.2191C25.1483 29.2638 24.7268 29.0139 24.5776 28.8833C23.8613 28.6595 23.3838 29.1631 23.2346 29.4429L26.0884 36.6056L27.7672 32.6325L31.7402 34.4232Z" fill="#666666"/>
<path d="M19.1764 17.9345C19.1764 17.9569 20.5563 19.2865 21.2463 19.9484C24.1329 17.1066 26.8685 16.0604 27.8755 15.8926L27.7077 16.2003C26.3651 16.8716 25.0411 17.8413 24.5469 18.2422C23.07 19.2715 21.9549 20.7969 21.582 21.4309C21.2463 21.8337 20.9573 21.5987 20.8547 21.4309L18.6729 18.41C18.5051 17.6828 19.1764 17.9065 19.1764 17.9345Z" fill="#666666"/>
</svg>
