<svg width="20" height="20" viewBox="0 0 20 20" fill="none" xmlns="http://www.w3.org/2000/svg">
<path d="M4.66491 17.6329C3.08903 17.6329 2.35832 16.9022 2.35832 15.3263V13.4247C2.35832 13.2398 2.3143 13.1165 2.18224 12.9757L0.835262 11.6199C-0.274014 10.5106 -0.282818 9.48058 0.835262 8.3713L2.18224 7.01552C2.3143 6.88346 2.35832 6.7514 2.35832 6.57533V4.66491C2.35832 3.08023 3.08903 2.35832 4.66491 2.35832H6.57533C6.7514 2.35832 6.88346 2.3143 7.01552 2.18224L8.3713 0.835262C9.48058 -0.274014 10.5106 -0.282818 11.6199 0.835262L12.9757 2.18224C13.1165 2.3143 13.2398 2.35832 13.4247 2.35832H15.3263C16.911 2.35832 17.6329 3.09783 17.6329 4.66491V6.57533C17.6329 6.7514 17.6857 6.88346 17.8178 7.01552L19.1647 8.3713C20.274 9.48058 20.2828 10.5106 19.1647 11.6199L17.8178 12.9757C17.6857 13.1165 17.6329 13.2398 17.6329 13.4247V15.3263C17.6329 16.911 16.9022 17.6329 15.3263 17.6329H13.4247C13.2398 17.6329 13.1165 17.6857 12.9757 17.8178L11.6199 19.1647C10.5106 20.274 9.48058 20.2828 8.3713 19.1647L7.01552 17.8178C6.88346 17.6857 6.7514 17.6329 6.57533 17.6329H4.66491ZM9.01398 14.2962C9.3133 14.2962 9.56861 14.1554 9.75349 13.8737L13.8913 7.35006C13.9969 7.17399 14.1114 6.9715 14.1114 6.76901C14.1114 6.36404 13.7504 6.09992 13.3718 6.09992C13.1341 6.09992 12.9052 6.23198 12.738 6.5049L8.97876 12.5443L7.19159 10.2377C6.9715 9.94718 6.77782 9.85914 6.53131 9.85914C6.12634 9.85914 5.8182 10.1849 5.8182 10.5899C5.8182 10.7835 5.89744 10.986 6.02949 11.1621L8.23924 13.8737C8.46814 14.1818 8.71465 14.2962 9.01398 14.2962Z" fill="#CCCCCC"/>
</svg>
