<svg width="94" height="127" viewBox="0 0 94 127" fill="none" xmlns="http://www.w3.org/2000/svg">
<path opacity="0.5" d="M21.8506 116.187C16.9058 116.187 12.8965 114.45 9.82276 110.975C6.88261 107.367 5.41254 102.689 5.41254 96.9427C5.41254 89.4587 7.61765 82.5093 12.0279 76.0944C16.4381 69.5459 21.9174 64.668 28.4659 61.4605L29.6687 63.8661C26.8622 66.0044 24.3898 68.7441 22.2516 72.0851C20.1133 75.4262 18.5764 79.5691 17.6409 84.5139L21.8506 85.5163C26.5281 86.5854 30.1365 88.59 32.6757 91.5302C35.3486 94.3367 36.685 97.7446 36.685 101.754C36.685 106.03 35.2149 109.505 32.2748 112.178C29.4683 114.851 25.9936 116.187 21.8506 116.187ZM64.1486 116.187C59.2038 116.187 55.1945 114.45 52.1207 110.975C49.1806 107.367 47.7105 102.689 47.7105 96.9427C47.7105 89.4587 49.9156 82.5093 54.3259 76.0944C58.7361 69.5459 64.2154 64.668 70.7639 61.4605L71.9667 63.8661C69.1602 66.0044 66.6878 68.7441 64.5495 72.0851C62.4113 75.4262 60.8744 79.5691 59.9389 84.5139L64.1486 85.5163C68.8261 86.5854 72.4345 88.59 74.9737 91.5302C77.6465 94.3367 78.983 97.7446 78.983 101.754C78.983 106.03 77.5129 109.505 74.5728 112.178C71.7663 114.851 68.2915 116.187 64.1486 116.187Z" fill="#9DA9A3"/>
</svg>
