<svg width="24" height="24" viewBox="0 0 24 24" fill="none" xmlns="http://www.w3.org/2000/svg">
<path d="M12.0001 12.5664C14.3913 12.5664 16.3297 10.628 16.3297 8.2368C16.3297 5.84562 14.3913 3.9072 12.0001 3.9072C9.60895 3.9072 7.67053 5.84562 7.67053 8.2368C7.67053 10.628 9.60895 12.5664 12.0001 12.5664Z" stroke="#808080" stroke-width="0.96" stroke-miterlimit="10" stroke-linecap="round" stroke-linejoin="round"/>
<path d="M9.10062 11.4336C9.09102 11.4336 9.09102 11.4336 9.08142 11.4432" stroke="#808080" stroke-width="0.96" stroke-miterlimit="10" stroke-linecap="round" stroke-linejoin="round"/>
<path d="M16.7714 12.3072C19.2578 13.824 20.9474 16.5024 21.1202 19.584C21.1298 19.8624 20.909 20.0928 20.6306 20.0928H3.36978C3.09138 20.0928 2.87058 19.8624 2.88018 19.584C3.05298 16.5216 4.73298 13.8528 7.19058 12.336" stroke="#808080" stroke-width="0.96" stroke-miterlimit="10" stroke-linecap="round" stroke-linejoin="round"/>
</svg>
